<?xml version="1.0" encoding="UTF-8"?> <svg xmlns="http://www.w3.org/2000/svg" xmlns:xlink="http://www.w3.org/1999/xlink" version="1.1" id="Layer_1" x="0px" y="0px" viewBox="0 0 200 105" style="enable-background:new 0 0 200 105;" xml:space="preserve"> <style type="text/css"> .st0{fill:#102248;} .st1{fill:#EC2027;} .st2{fill:#989999;} </style> <g> <path class="st0" d="M3.18,79.72H0.6v-1.28h6.63v1.28h-2.6v7.29H3.18V79.72z"></path> <path class="st0" d="M13.13,78.45h6.09v1.28h-4.64V82h4.55v1.28h-4.55v2.46h4.64v1.28h-6.09V78.45z"></path> <path class="st0" d="M25.5,78.45h1.45v7.29H31v1.28h-5.5V78.45z"></path> <path class="st0" d="M37.07,78.45h1.45v7.29h4.05v1.28h-5.5V78.45z"></path> <path class="st0" d="M48.64,78.45h1.46v5.12c0,1.43,0.81,2.34,2.32,2.34c1.48,0,2.3-0.9,2.3-2.34v-5.12h1.48v5.23 c0,2.13-1.28,3.52-3.78,3.52c-2.54,0-3.78-1.4-3.78-3.5V78.45z"></path> <path class="st0" d="M65.88,83.8h-1.6v3.21h-1.45v-8.56h3.86c1.82,0,2.87,1.18,2.87,2.66c0,1.51-0.97,2.44-2.21,2.57l2.32,3.33 h-1.7L65.88,83.8z M66.53,79.72h-2.26v2.8h2.26c1.01,0,1.54-0.59,1.54-1.42C68.07,80.3,67.51,79.72,66.53,79.72z"></path> <path class="st0" d="M75.83,78.45h1.45v8.56h-1.45V78.45z"></path> <path class="st0" d="M83.91,78.45h3.24c2.82,0,4.61,1.82,4.61,4.3c0,2.46-1.79,4.27-4.61,4.27h-3.24V78.45z M87.15,79.72h-1.79 v6.01h1.79c2.01,0,3.1-1.34,3.1-2.99C90.25,81.08,89.22,79.72,87.15,79.72z"></path> <path class="st0" d="M97.93,78.45h6.09v1.28h-4.64V82h4.55v1.28h-4.55v2.46h4.64v1.28h-6.09V78.45z"></path> <path class="st0" d="M118.75,84.77c0.58,0.61,1.62,1.18,2.8,1.18c1.37,0,1.93-0.62,1.93-1.31c0-0.87-1-1.11-2.1-1.39 c-1.45-0.34-3.08-0.72-3.08-2.49c0-1.43,1.34-2.51,3.19-2.51c1.42,0,2.51,0.47,3.29,1.23l-0.73,1.04 c-0.64-0.67-1.65-1.01-2.57-1.01c-0.98,0-1.68,0.5-1.68,1.2c0,0.72,0.9,0.93,1.96,1.2c1.46,0.34,3.22,0.76,3.22,2.66 c0,1.51-1.14,2.62-3.46,2.62c-1.56,0-2.79-0.56-3.5-1.32L118.75,84.77z"></path> <path class="st0" d="M135.14,78.26c1.62,0,2.77,0.81,3.49,1.88l-1.18,0.62c-0.48-0.73-1.34-1.21-2.3-1.21 c-1.78,0-3.11,1.32-3.11,3.18c0,1.84,1.34,3.18,3.11,3.18c0.97,0,1.85-0.48,2.3-1.2l1.18,0.61c-0.72,1.09-1.87,1.88-3.49,1.88 c-2.62,0-4.61-1.84-4.61-4.47C130.54,80.08,132.53,78.26,135.14,78.26z"></path> <path class="st0" d="M144.47,78.45h1.45v8.56h-1.45V78.45z"></path> <path class="st0" d="M152.55,78.45h6.09v1.28H154V82h4.55v1.28H154v2.46h4.64v1.28h-6.09V78.45z"></path> <path class="st0" d="M166.37,80.6v6.42h-1.45v-8.56h1.53l4.69,6.27v-6.27h1.46v8.56h-1.48L166.37,80.6z"></path> <path class="st0" d="M183.36,78.26c1.62,0,2.77,0.81,3.49,1.88l-1.18,0.62c-0.48-0.73-1.34-1.21-2.3-1.21 c-1.78,0-3.11,1.32-3.11,3.18c0,1.84,1.34,3.18,3.11,3.18c0.97,0,1.85-0.48,2.3-1.2l1.18,0.61c-0.72,1.09-1.87,1.88-3.49,1.88 c-2.62,0-4.61-1.84-4.61-4.47C178.75,80.08,180.74,78.26,183.36,78.26z"></path> <path class="st0" d="M192.68,78.45h6.09v1.28h-4.64V82h4.55v1.28h-4.55v2.46h4.64v1.28h-6.09V78.45z"></path> <path class="st0" d="M6.34,103.49c-0.26-0.23-0.6-0.56-0.96-0.91c-0.55,0.61-1.26,1.05-2.23,1.05c-1.26,0-2.3-0.7-2.3-2.07 c0-1.21,0.82-1.82,1.69-2.31c-0.36-0.59-0.61-1.19-0.61-1.73c0-1,0.8-1.73,1.8-1.73c0.94,0,1.6,0.51,1.6,1.44 c0,1.13-0.99,1.63-1.96,2.15c0.33,0.47,0.69,0.9,0.97,1.21c0.35,0.4,0.68,0.76,1.01,1.1c0.46-0.68,0.74-1.43,0.86-1.84l0.55,0.23 c-0.24,0.6-0.55,1.36-1,2.02c0.44,0.44,0.91,0.89,1.47,1.39H6.34z M5,102.18c-0.47-0.48-0.91-0.94-1.14-1.21 c-0.34-0.4-0.71-0.84-1.02-1.3c-0.72,0.43-1.32,0.94-1.32,1.84c0,1.03,0.81,1.58,1.68,1.58C3.94,103.1,4.54,102.71,5,102.18z M3.1,98.96c0.86-0.44,1.65-0.86,1.65-1.72c0-0.63-0.43-0.96-0.99-0.96c-0.65,0-1.18,0.51-1.18,1.24 C2.58,97.98,2.81,98.48,3.1,98.96z"></path> <path class="st0" d="M19.45,95.9h0.76v7.59h-0.76V95.9z"></path> <path class="st0" d="M27.08,97.05v6.45h-0.76V95.9h0.76l4.87,6.35V95.9h0.76v7.59h-0.75L27.08,97.05z"></path> <path class="st0" d="M39.6,97.05v6.45h-0.76V95.9h0.76l4.87,6.35V95.9h0.76v7.59h-0.75L39.6,97.05z"></path> <path class="st0" d="M54.84,95.74c2.33,0,3.85,1.74,3.85,3.96c0,2.21-1.52,3.96-3.85,3.96c-2.35,0-3.86-1.75-3.86-3.96 C50.97,97.47,52.49,95.74,54.84,95.74z M54.84,96.41c-1.88,0-3.06,1.39-3.06,3.28c0,1.86,1.19,3.28,3.06,3.28 c1.85,0,3.06-1.42,3.06-3.28C57.9,97.81,56.69,96.41,54.84,96.41z"></path> <path class="st0" d="M63.22,95.9h0.87l2.84,6.73l2.86-6.73h0.86l-3.27,7.59h-0.88L63.22,95.9z"></path> <path class="st0" d="M81.88,103.49h-0.86l-0.8-1.84h-4.13l-0.77,1.84h-0.87l3.27-7.59h0.88L81.88,103.49z M76.34,100.98h3.63 l-1.81-4.29L76.34,100.98z"></path> <path class="st0" d="M88.19,96.58h-2.43V95.9h5.63v0.68h-2.44v6.91h-0.76V96.58z"></path> <path class="st0" d="M96.78,95.9h0.76v7.59h-0.76V95.9z"></path> <path class="st0" d="M107.14,95.74c2.33,0,3.85,1.74,3.85,3.96c0,2.21-1.52,3.96-3.85,3.96c-2.35,0-3.86-1.75-3.86-3.96 C103.27,97.47,104.79,95.74,107.14,95.74z M107.14,96.41c-1.88,0-3.06,1.39-3.06,3.28c0,1.86,1.19,3.28,3.06,3.28 c1.85,0,3.06-1.42,3.06-3.28C110.2,97.81,108.98,96.41,107.14,96.41z"></path> <path class="st0" d="M117.5,97.05v6.45h-0.76V95.9h0.76l4.87,6.35V95.9h0.76v7.59h-0.75L117.5,97.05z"></path> <path class="st0" d="M140.36,95.74c1.26,0,2.22,0.54,2.91,1.41l-0.59,0.37c-0.51-0.69-1.38-1.1-2.32-1.1 c-1.81,0-3.22,1.35-3.22,3.27c0,1.92,1.41,3.3,3.22,3.3c0.94,0,1.85-0.43,2.32-1.1l0.61,0.37c-0.72,0.88-1.67,1.41-2.93,1.41 c-2.25,0-4.02-1.63-4.02-3.97C136.34,97.35,138.11,95.74,140.36,95.74z"></path> <path class="st0" d="M148.64,95.9h5.08v0.68h-4.32v2.68h4.24v0.68h-4.24v2.88h4.32v0.68h-5.08V95.9z"></path> <path class="st0" d="M160.26,97.05v6.45h-0.76V95.9h0.76l4.87,6.35V95.9h0.76v7.59h-0.75L160.26,97.05z"></path> <path class="st0" d="M173.73,96.58h-2.43V95.9h5.63v0.68h-2.44v6.91h-0.76V96.58z"></path> <path class="st0" d="M182.33,95.9h5.08v0.68h-4.32v2.68h4.24v0.68h-4.24v2.88h4.32v0.68h-5.08V95.9z"></path> <path class="st0" d="M195.64,100.4h-1.68v3.09h-0.76V95.9h3.01c1.55,0,2.43,0.97,2.43,2.24c0,1.3-0.86,2.17-2.18,2.22l2.29,3.13 h-0.92L195.64,100.4z M196.15,96.58h-2.19v3.15h2.19c1.13,0,1.7-0.66,1.7-1.59C197.84,97.23,197.24,96.58,196.15,96.58z"></path> </g> <path class="st1" d="M126.31,22.94c-0.62,0-1.16,0.37-1.41,0.9l-10.24-3.42c0.01-0.07,0.02-0.14,0.02-0.21 c0-0.67-0.55-1.22-1.22-1.22s-1.22,0.55-1.22,1.22c0,0.2,0.05,0.39,0.14,0.55l-12.97,9.23c-0.28-0.42-0.76-0.7-1.3-0.7 c-0.58,0-1.08,0.32-1.35,0.79l-11.02-7.01c0.1-0.18,0.17-0.38,0.17-0.61c0-0.67-0.55-1.22-1.22-1.22c-0.67,0-1.22,0.55-1.22,1.22 c0,0.67,0.55,1.22,1.22,1.22c0.32,0,0.62-0.13,0.83-0.33l11.09,7.06c-0.04,0.14-0.07,0.28-0.07,0.44c0,0.86,0.7,1.56,1.56,1.56 s1.56-0.7,1.56-1.56c0-0.19-0.04-0.37-0.1-0.53l13.01-9.26c0.22,0.23,0.53,0.38,0.88,0.38c0.48,0,0.88-0.27,1.08-0.67l10.24,3.42 c-0.02,0.1-0.03,0.21-0.03,0.32c0,0.86,0.7,1.56,1.56,1.56c0.86,0,1.56-0.7,1.56-1.56S127.17,22.94,126.31,22.94z"></path> <g> <path class="st0" d="M160.04,31.96c-8.58,4.85-8.58,4.85-17.48,9.86c-5.4-5.8-9.16-9.85-12.34-13.27l-15.91-5.42L98.12,34.16 L82.16,23.65l0,0c-2.57,2.53-6.84,6.73-18.94,18.78c-7.92-5.68-15.84-11.37-23.75-17.05C24.96,41.15,20.95,46.04,9.74,58.5 L0.6,68.22h198.68C160.04,31.96,160.04,31.96,160.04,31.96z"></path> </g> <polygon class="st2" points="85.93,20.21 97.77,27.49 113.26,16.52 124.23,20.71 104.45,0.34 85.93,20.21 "></polygon> </svg> 